<svg width="120" height="32" viewBox="0 0 120 32" fill="none" xmlns="http://www.w3.org/2000/svg">
  <!-- Background circle -->
  <circle cx="16" cy="16" r="14" fill="white" stroke="#e5e7eb" stroke-width="2"/>
  
  <!-- Letter G -->
  <path d="M10 16C10 12.6863 12.6863 10 16 10C19.3137 10 22 12.6863 22 16C22 19.3137 19.3137 22 16 22C12.6863 22 10 19.3137 10 16Z" fill="#1f2937"/>
  <path d="M16 12C13.7909 12 12 13.7909 12 16C12 18.2091 13.7909 20 16 20C18.2091 20 20 18.2091 20 16H18C18 17.1046 17.1046 18 16 18C14.8954 18 14 17.1046 14 16C14 14.8954 14.8954 14 16 14C17.1046 14 18 14.8954 18 16H20C20 13.7909 18.2091 12 16 12Z" fill="white"/>
  
  <!-- Text -->
  <text x="32" y="12" font-family="Arial, sans-serif" font-size="10" font-weight="bold" fill="white">GRUPO</text>
  <text x="32" y="24" font-family="Arial, sans-serif" font-size="8" fill="#9ca3af">CRM</text>
</svg>
